<svg xmlns="http://www.w3.org/2000/svg" width="24" height="24" viewBox="0 0 24 24" fill="none">
  <path fill-rule="evenodd" clip-rule="evenodd" d="M10 4C10 3.44772 10.4477 3 11 3H18C18.5523 3 19 3.44772 19 4V20C19 20.5523 18.5523 21 18 21H11C10.4477 21 10 20.5523 10 20V16H12V19H17V5H12V8H10V4ZM6.70711 7.29289C7.09763 6.90237 7.7308 6.90237 8.12132 7.29289L12.1213 11.2929C12.5118 11.6834 12.5118 12.3166 12.1213 12.7071L8.12132 16.7071C7.7308 17.0976 7.09763 17.0976 6.70711 16.7071C6.31658 16.3166 6.31658 15.6834 6.70711 15.2929L9.41421 12.5858H3C2.44772 12.5858 2 12.1381 2 11.5858C2 11.0335 2.44772 10.5858 3 10.5858H9.41421L6.70711 7.87868C6.31658 7.48816 6.31658 6.85499 6.70711 6.46447Z" fill="#5C5C7B"/>
</svg>
